# xmcd
#
# Track frame offsets: 
#        150
#        11454
#        24052
#        36952
#        49161
#        61620
#        72996
#        83880
#        97450
#        108845
#        119940
#        132783
#        135409
#        147956
#        160037
#        172949
#        177546
#        189381
#        201169
#        212744
#        224566
#        236058
#        247069
#        258271
#        268732
#        280708
#        291712
#        304278
#        315005
#        325576
#        335919
#
# Disc length: 4632 seconds
#
# Revision: 4
# Processed by: cddbd v1.5.2PL0 Copyright (c) Steve Scherf et al.
# Submitted via: ExactAudioCopy v0.95b4
#
DISCID=d712161f
DTITLE=Hank Thompson - Hank Thompson and His Brazos Valley Boys  CD 1
DYEAR=1996
DGENRE=Country
TTITLE0=Swing Wide Your Gate Of Love - 1946
TTITLE1=Whoa Sailor - 1946
TTITLE2=California Women - 1947
TTITLE3=What Are We Gonna Do About The Moonlight - 1947
TTITLE4=Lonely Heart Knows
TTITLE5=Starry Eyed Texas Gal
TTITLE6=Humpty Dumpty Heart
TTITLE7=Today
TTITLE8=Don't Flirt With Me
TTITLE9=Rock In The Ocean
TTITLE10=My Heart Is A Jigsaw Puzzle
TTITLE11=Yesterday's Mail (Chat and False Start)
TTITLE12=Yesterday's Mail
TTITLE13=I Find You Cheatin' On Me
TTITLE14=Second Hand Gal
TTITLE15=You Broke My Heart (In Little Bitty Pieces) - 1949 Ver 1
TTITLE16=You Broke My Heart (In Little Bitty Pieces) - 1949 Ver 2
TTITLE17=Mary Had A Little Lamb (His Love Was Pure As Snow)
TTITLE18=You Remembered Me
TTITLE19=California Women -1948
TTITLE20=Green Light
TTITLE21=What Are We Gonna Do About The Moonlight - 1948
TTITLE22=All That Goes Up Must Come Down
TTITLE23=Standing On The Outside Looking In Now
TTITLE24=Tomorrow Night
TTITLE25=My Front Door Is Open
TTITLE26=Soft Lips
TTITLE27=Swing Wide Your Gate Of Love - 1949
TTITLE28=Whoa Sailor - 1949
TTITLE29=Grass Looks Greener Over Yonder
TTITLE30=She's A Girl Without Any Sweetheart
EXTD=Volume #1 of a 12-CD Box Set - BCD 15904 LK YEAR: 1996
EXTT0=
EXTT1=
EXTT2=
EXTT3=
EXTT4=
EXTT5=
EXTT6=
EXTT7=
EXTT8=
EXTT9=
EXTT10=
EXTT11=
EXTT12=
EXTT13=
EXTT14=
EXTT15=
EXTT16=
EXTT17=
EXTT18=
EXTT19=
EXTT20=
EXTT21=
EXTT22=
EXTT23=
EXTT24=
EXTT25=
EXTT26=
EXTT27=
EXTT28=
EXTT29=
EXTT30=
PLAYORDER=
